Coordinates
version=1
nRows=65
nColumns=12
inDegrees=yes

Units are S.I. units (second, meters, Newtons, ...)
Angles are in degrees

endheader
time	SC_y	SC_z	SC_x	AC_y	AC_z	AC_x	GH_y	GH_z	GH_yy	EL_x	PS_y
       0.0              -51.73          19.62           83.4          58.91         -2.562        -0.5974          9.046          57.66          74.55           18.6          29.52
  0.002667              -51.73          19.62          83.39           58.9         -2.562        -0.5945          9.057          57.65          74.56          18.62          29.52
  0.005334              -51.73          19.62          83.38           58.9         -2.562        -0.5915          9.069          57.64          74.57          18.63          29.52
  0.008002              -51.73          19.62          83.37           58.9         -2.562        -0.5883          9.082          57.64          74.58          18.65          29.52
   0.01067              -51.73          19.61          83.36           58.9         -2.562        -0.5848          9.096          57.63          74.59          18.67          29.52
   0.01334              -51.74          19.61          83.35           58.9         -2.562        -0.5812          9.111          57.62           74.6          18.68          29.51
     0.016              -51.74          19.61          83.34          58.89         -2.563        -0.5773          9.126          57.61          74.61           18.7          29.51
   0.01867              -51.74          19.61          83.32          58.89         -2.563        -0.5731          9.143           57.6          74.62          18.72          29.51
   0.02134              -51.74           19.6          83.31          58.89         -2.563        -0.5686          9.161          57.59          74.64          18.75           29.5
     0.024              -51.74           19.6          83.29          58.89         -2.563        -0.5638           9.18          57.58          74.65          18.77           29.5
   0.02667              -51.74           19.6          83.27          58.88         -2.563        -0.5587          9.201          57.57          74.66           18.8           29.5
   0.02934              -51.74           19.6          83.25          58.88         -2.564        -0.5531          9.223          57.56          74.68          18.82          29.49
   0.03201              -51.74          19.59          83.23          58.88         -2.564        -0.5471          9.247          57.55           74.7          18.85          29.49
   0.03467              -51.75          19.59          83.21          58.87         -2.564        -0.5407          9.273          57.53          74.72          18.88          29.49
   0.03734              -51.75          19.58          83.19          58.87         -2.564        -0.5337          9.301          57.52          74.74          18.92          29.48
   0.04001              -51.75          19.58          83.16          58.87         -2.565        -0.5261          9.332           57.5          74.76          18.96          29.48
   0.04267              -51.75          19.57          83.13          58.86         -2.565        -0.5179          9.365          57.48          74.78           19.0          29.47
   0.04534              -51.76          19.57           83.1          58.86         -2.566        -0.5089          9.401          57.46          74.81          19.04          29.46
   0.04801              -51.76          19.56          83.07          58.85         -2.566        -0.4991           9.44          57.44          74.84          19.09          29.46
   0.05068              -51.76          19.56          83.03          58.85         -2.566        -0.4884          9.483          57.42          74.87          19.14          29.45
   0.05334              -51.76          19.55          82.99          58.84         -2.567        -0.4766           9.53          57.39           74.9           19.2          29.44
   0.05601              -51.77          19.54          82.95          58.83         -2.567        -0.4636          9.582          57.36          74.94          19.27          29.43
   0.05868              -51.77          19.53           82.9          58.83         -2.568        -0.4493           9.64          57.33          74.98          19.34          29.43
   0.06135              -51.78          19.52          82.84          58.82         -2.569        -0.4334          9.703          57.29          75.03          19.41          29.41
   0.06401              -51.78          19.51          82.78          58.81         -2.569        -0.4158          9.774          57.25          75.08           19.5           29.4
   0.06668              -51.79           19.5          82.72           58.8          -2.57        -0.3961          9.853          57.21          75.14           19.6          29.39
   0.06935              -51.79          19.49          82.64          58.79         -2.571         -0.374          9.941          57.16           75.2          19.71          29.38
   0.07201               -51.8          19.47          82.56          58.77         -2.572        -0.3492          10.04          57.11          75.27          19.83          29.36
   0.07468              -51.81          19.45          82.46          58.76         -2.573        -0.3212          10.15          57.05          75.35          19.97          29.34
   0.07735              -51.82          19.44          82.35          58.74         -2.575        -0.2894          10.28          56.97          75.45          20.13          29.32
   0.08002              -51.83          19.41          82.23          58.72         -2.576         -0.253          10.43          56.89          75.55          20.31           29.3
   0.08268              -51.84          19.39          82.08           58.7         -2.578        -0.2113          10.59           56.8          75.67          20.51          29.27
   0.08535              -51.85          19.36          81.92          58.67          -2.58        -0.1632          10.79           56.7          75.81          20.75          29.24
   0.08802              -51.87          19.32          81.73          58.64         -2.582        -0.1073          11.01          56.57          75.97          21.03           29.2
   0.09068              -51.88          19.29           81.5          58.61         -2.585       -0.04185          11.27          56.43          76.16          21.35          29.16
   0.09335              -51.91          19.24          81.24          58.56         -2.588        0.03529          11.58          56.26          76.39          21.73           29.1
   0.09602              -51.93          19.18          80.93          58.51         -2.592          0.127          11.95          56.05          76.66          22.18          29.04
   0.09869              -51.96          19.12          80.55          58.46         -2.597         0.2369          12.39          55.81          76.97          22.73          28.97
    0.1014               -52.0          19.04           80.1          58.38         -2.602         0.3698          12.92          55.51          77.36          23.38          28.88
     0.104              -52.04          18.94          79.54           58.3         -2.609         0.5322          13.58          55.15          77.83          24.18          28.78
    0.1067               -52.1          18.82          78.86          58.19         -2.618         0.7326          14.38          54.71          78.41          25.17          28.64
    0.1094              -52.17          18.66           78.0          58.05         -2.628         0.9826          15.38          54.16          79.14          26.41          28.48
     0.112              -52.25          18.47          76.93          57.88         -2.641          1.297          16.64          53.46          80.05          27.96          28.27
    0.1147              -52.36          18.23          75.56          57.67         -2.658          1.698          18.25          52.57          81.22          29.94           28.0
    0.1174               -52.5          17.92          73.81          57.39          -2.68           2.21           20.3          51.44           82.7          32.47          27.66
      0.12              -52.68          17.52          71.56          57.04         -2.708          2.867          22.94          49.98          84.61          35.72          27.23
    0.1227              -52.91          17.01          68.69          56.58         -2.743          3.707          26.31          48.12          87.05          39.87          26.67
    0.1254               -53.2          16.37          65.08          56.01         -2.787          4.763          30.54          45.78          90.12          45.08          25.97
     0.128              -53.56          15.59          60.68          55.32         -2.841           6.05           35.7          42.93          93.86          51.44          25.12
    0.1307              -53.97          14.69          55.58          54.52         -2.904          7.541          41.68          39.62          98.19          58.81          24.14
    0.1334              -54.41          13.71          50.05          53.65         -2.972          9.157          48.16          36.04          102.9          66.78          23.07
     0.136              -54.86          12.73          44.53          52.77          -3.04          10.77          54.64          32.46          107.6          74.76           22.0
    0.1387              -55.27          11.82          39.43          51.97         -3.103          12.26          60.62          29.16          111.9          82.13          21.01
    0.1414              -55.62          11.04          35.03          51.28         -3.157          13.55          65.78           26.3          115.6          88.49          20.16
     0.144              -55.91           10.4          31.42          50.71         -3.201          14.61          70.01          23.96          118.7           93.7          19.46
    0.1467              -56.14          9.895          28.55          50.25         -3.237          15.45          73.38           22.1          121.1          97.85           18.9
    0.1494              -56.32          9.496           26.3           49.9         -3.264           16.1          76.02          20.65          123.1          101.1          18.47
     0.152              -56.46          9.186          24.55          49.62         -3.286          16.62          78.07          19.51          124.5          103.6          18.13
    0.1547              -56.57          8.943          23.18          49.41         -3.303          17.02          79.68          18.62          125.7          105.6          17.86
    0.1574              -56.66          8.752          22.11          49.24         -3.316          17.33          80.94          17.93          126.6          107.2          17.66
      0.16              -56.73          8.601          21.25           49.1         -3.326          17.58          81.94          17.37          127.3          108.4          17.49
    0.1627              -56.78          8.479          20.57          48.99         -3.335          17.78          82.74          16.93          127.9          109.4          17.36
    0.1654              -56.83          8.381          20.01          48.91         -3.342          17.94           83.4          16.57          128.4          110.2          17.25
     0.168              -56.86            8.3          19.56          48.83         -3.347          18.08          83.93          16.27          128.8          110.8          17.16
    0.1707              -56.89          8.233          19.18          48.78         -3.352          18.19          84.37          16.03          129.1          111.4          17.09
